<?xml version="1.0" standalone="no"?>
<!DOCTYPE svg PUBLIC "-//W3C//DTD SVG 20010904//EN"
 "http://www.w3.org/TR/2001/REC-SVG-20010904/DTD/svg10.dtd">
<svg version="1.0" xmlns="http://www.w3.org/2000/svg"
 width="828.000000pt" height="828.000000pt" viewBox="0 0 828.000000 828.000000"
 preserveAspectRatio="xMidYMid meet">
<metadata>
Created by potrace 1.11, written by Peter Selinger 2001-2013
</metadata>
<g transform="translate(0.000000,828.000000) scale(0.100000,-0.100000)"
fill="#000000" stroke="none">
<path d="M6178 7585 c-2 -2 -114 -32 -248 -65 -243 -61 -261 -66 -301 -75 -11
-2 -29 -7 -39 -10 -10 -3 -28 -8 -39 -10 -12 -3 -29 -7 -38 -9 -306 -73 -328
-81 -387 -146 -44 -49 -56 -77 -63 -149 -7 -63 17 -153 51 -192 24 -27 102
-82 126 -87 27 -6 215 -40 255 -46 44 -7 133 -22 180 -31 17 -3 46 -8 65 -10
19 -3 42 -7 50 -10 8 -2 33 -7 55 -10 23 -3 52 -8 65 -10 14 -3 53 -10 88 -16
35 -6 62 -13 60 -14 -2 -2 -84 -34 -183 -73 -99 -38 -189 -73 -200 -77 -11 -5
-22 -9 -25 -10 -3 -1 -14 -5 -25 -10 -11 -4 -42 -17 -70 -27 -27 -10 -59 -23
-70 -28 -11 -4 -65 -25 -120 -46 -55 -20 -113 -43 -130 -50 -16 -7 -86 -34
-155 -59 -69 -25 -134 -50 -145 -55 -22 -11 -239 -92 -325 -122 -30 -11 -64
-24 -75 -29 -17 -8 -191 -72 -620 -231 -60 -22 -121 -45 -135 -51 -14 -5 -29
-11 -35 -13 -10 -2 -468 -170 -495 -181 -8 -3 -17 -7 -20 -8 -252 -87 -401
-288 -401 -541 0 -45 5 -92 10 -105 5 -13 15 -46 22 -72 27 -109 147 -247 264
-305 33 -17 121 -51 195 -76 74 -24 214 -72 310 -106 96 -34 209 -73 250 -87
41 -14 102 -35 135 -48 33 -12 62 -23 65 -23 8 -1 44 -13 65 -22 11 -5 38 -14
60 -21 22 -6 45 -14 50 -18 6 -3 12 -6 15 -6 23 -4 99 -31 116 -42 11 -7 24
-10 27 -7 4 4 12 3 19 -3 7 -5 33 -16 58 -23 25 -7 50 -16 55 -19 6 -3 15 -6
20 -8 6 -1 42 -14 80 -28 39 -14 75 -27 80 -28 10 -3 66 -23 100 -37 11 -5 31
-12 45 -16 l25 -7 -30 -9 c-16 -4 -39 -10 -50 -12 -11 -2 -141 -34 -290 -71
-397 -97 -758 -186 -777 -191 -10 -2 -28 -6 -40 -10 -13 -3 -34 -7 -47 -10
-14 -3 -56 -14 -95 -24 -39 -11 -82 -21 -96 -24 -14 -2 -52 -11 -86 -20 -33
-8 -69 -17 -80 -19 -10 -2 -39 -9 -64 -16 -47 -14 -68 -19 -110 -27 -14 -3
-47 -11 -75 -19 -27 -8 -61 -16 -75 -19 -14 -3 -34 -7 -45 -10 -273 -65 -487
-118 -515 -125 -45 -13 -169 -43 -195 -47 -11 -2 -92 -22 -180 -44 -88 -22
-169 -42 -180 -44 -11 -3 -30 -7 -42 -10 -13 -4 -31 -8 -40 -10 -10 -3 -112
-28 -228 -56 -115 -28 -221 -54 -235 -56 -14 -3 -61 -14 -105 -25 -88 -23
-108 -28 -145 -35 -14 -3 -34 -8 -45 -11 -11 -4 -22 -7 -25 -8 -60 -13 -91
-21 -174 -47 -269 -84 -497 -265 -649 -513 -40 -66 -100 -201 -113 -255 -10
-44 -9 -42 -17 -60 -18 -42 -35 -207 -32 -315 6 -214 70 -428 181 -602 76
-119 235 -276 354 -350 150 -94 326 -157 495 -178 62 -8 241 -8 275 0 14 3 45
8 70 11 25 3 108 28 185 54 146 50 627 233 657 250 10 6 23 10 29 10 6 0 25 6
42 14 18 8 169 67 337 131 302 115 372 142 493 189 134 52 333 128 577 220
140 53 264 101 275 106 11 5 103 41 205 79 261 99 423 160 440 168 8 3 17 7
20 8 3 1 14 5 25 9 11 4 34 13 50 18 17 6 44 17 60 23 17 7 73 29 125 48 52
20 109 41 125 48 17 7 35 13 40 15 6 1 46 17 90 34 44 17 105 40 135 51 30 10
62 22 70 26 8 3 17 7 20 8 7 2 62 24 80 32 8 3 17 7 20 8 3 0 32 11 65 23 33
13 130 49 215 82 85 32 164 61 175 66 11 4 22 8 25 9 3 1 16 6 30 12 14 6 106
41 205 78 99 38 221 84 270 102 50 19 95 36 100 37 10 3 23 8 95 38 19 8 38
16 42 17 11 2 20 6 168 62 74 28 140 52 145 53 6 2 21 8 35 13 52 22 219 83
226 83 3 0 20 7 37 15 18 8 124 48 237 90 244 90 315 122 396 181 301 214 401
632 229 962 -82 159 -200 271 -373 353 -34 17 -70 32 -80 34 -9 2 -108 27
-219 54 -111 28 -213 53 -225 55 -72 16 -114 28 -124 36 -6 6 -13 7 -17 4 -3
-3 -43 4 -89 16 -46 12 -90 23 -98 25 -8 2 -44 10 -80 18 -56 13 -296 73 -325
81 -5 2 -29 7 -53 11 -23 4 -45 12 -48 16 -3 5 -9 7 -13 5 -4 -3 -25 -1 -46 5
-20 6 -45 12 -54 14 -9 3 -45 12 -81 20 -36 9 -73 18 -82 21 -10 2 -26 6 -35
8 -10 3 -56 14 -103 26 -47 12 -94 23 -105 25 -11 3 -38 9 -60 15 -22 6 -47
13 -55 14 -26 5 -75 17 -90 23 -8 3 -24 7 -35 8 -11 1 -94 22 -185 45 -91 23
-172 44 -180 45 -8 2 -60 16 -115 30 -55 14 -109 28 -120 30 -11 3 -29 7 -40
10 -11 3 -44 11 -72 17 -29 7 -53 15 -53 19 0 4 28 22 63 39 34 18 134 69 222
115 345 178 644 330 965 490 297 148 398 199 450 227 28 14 493 239 645 310
210 100 257 137 301 246 31 77 29 197 -6 257 -50 89 -70 112 -125 147 -64 40
-108 51 -265 63 -25 2 -62 6 -83 9 -21 3 -68 8 -105 11 -37 4 -80 8 -97 10
-16 1 -61 6 -100 10 -38 3 -86 8 -105 10 -19 2 -62 7 -95 10 -33 3 -78 8 -99
11 -22 3 -60 7 -85 9 -73 6 -152 14 -197 21 -42 6 -104 12 -138 13 -14 1 -5
11 30 35 27 19 54 39 59 43 6 5 26 19 46 31 66 40 83 93 48 149 -12 20 -73 56
-81 48z"/>
</g>
</svg>
