<svg xmlns="http://www.w3.org/2000/svg" xmlns:xlink="http://www.w3.org/1999/xlink" width="656.469" height="136.943" viewBox="0 0 656.469 136.943">
  <defs>
    <linearGradient id="linear-gradient" x1="-2.486" y1="-2.884" x2="1.014" y2="1" gradientUnits="objectBoundingBox">
      <stop offset="0" stop-color="#fcf448"/>
      <stop offset="0.778" stop-color="#ae2589"/>
      <stop offset="1" stop-color="#5e2495"/>
    </linearGradient>
  </defs>
  <g id="Group_70" data-name="Group 70" transform="translate(-17271.453 1796)">
    <path id="Union_11" data-name="Union 11" d="M605.468,134.427H566.784c-4.195,0-7.4-.988-9.53-2.936a9.915,9.915,0,0,1-3.207-7.634,10.124,10.124,0,0,1,3.207-7.813c2.128-1.949,5.334-2.936,9.53-2.936h76.948c4.2,0,7.4.987,9.53,2.936a10.121,10.121,0,0,1,3.207,7.813,9.912,9.912,0,0,1-3.207,7.634c-2.128,1.948-5.335,2.936-9.53,2.936Zm0-58.987h-31.82c-4.135,0-7.235-.958-9.213-2.846a9.763,9.763,0,0,1-2.981-7.362,9.4,9.4,0,0,1,3.026-7.272c2.007-1.828,5.091-2.755,9.168-2.755h63.218c4.077,0,7.161.927,9.168,2.755a9.4,9.4,0,0,1,3.026,7.272,9.763,9.763,0,0,1-2.981,7.362C644.1,74.483,641,75.44,636.867,75.44Zm0-52.754H568.862c-4.256,0-7.463-.958-9.53-2.845a9.765,9.765,0,0,1-3.117-7.543,9.658,9.658,0,0,1,3.117-7.453C561.4,2.958,564.606,2,568.862,2h72.792c4.256,0,7.463.957,9.53,2.845A9.658,9.658,0,0,1,654.3,12.3a9.765,9.765,0,0,1-3.117,7.543c-2.067,1.887-5.274,2.845-9.53,2.845Z" transform="translate(17271.453 -1796)" fill="url(#linear-gradient)"/>
    <path id="Path_206" data-name="Path 206" d="M65.852-51.58H41.282v37.488q0,8.04-3.794,12.195a12.41,12.41,0,0,1-9.575,4.155,12.5,12.5,0,0,1-9.756-4.11q-3.7-4.11-3.7-12.059V-115.986q0-8.853,4.065-12.646t12.917-3.794H65.852q15.266,0,23.486,2.349a34.971,34.971,0,0,1,14.047,7.5,33.806,33.806,0,0,1,8.988,12.827,45.153,45.153,0,0,1,3.071,17.073q0,20.234-12.466,30.668T65.852-51.58Zm-6.5-60.7H41.282v40.469H59.348A53.966,53.966,0,0,0,75.2-73.8a18.477,18.477,0,0,0,9.711-6.5q3.342-4.517,3.342-11.833,0-8.762-5.149-14.272Q77.324-112.283,59.348-112.283Z" transform="translate(17257 -1662.573)" fill="#fff"/>
    <path id="Path_205" data-name="Path 205" d="M132.477-54.741v-63.684q0-8.13,3.658-12.195a12.324,12.324,0,0,1,9.62-4.065,12.643,12.643,0,0,1,9.891,4.065q3.658,4.065,3.658,12.195V-53.3q0,11.111,2.484,18.563A21.429,21.429,0,0,0,170.6-23.17q6.323,4.11,17.705,4.11,15.718,0,22.222-8.356t6.5-25.338v-65.671q0-8.22,3.613-12.24a12.356,12.356,0,0,1,9.666-4.02,12.781,12.781,0,0,1,9.8,4.02q3.749,4.02,3.749,12.24v63.684q0,15.537-3.026,25.925A40.025,40.025,0,0,1,229.4-10.569,44.388,44.388,0,0,1,212.6-.813a73.524,73.524,0,0,1-22.4,3.071q-15.266,0-26.287-3.3a42.066,42.066,0,0,1-17.976-10.208,41.15,41.15,0,0,1-10.208-17.705Q132.477-39.746,132.477-54.741Z" transform="translate(17247 -1661.315)" fill="#fff"/>
    <path id="Path_202" data-name="Path 202" d="M303.346-56.638h-9.395v42.546q0,8.4-3.7,12.375a12.6,12.6,0,0,1-9.666,3.975q-6.414,0-9.937-4.155t-3.523-12.195V-115.986q0-8.672,3.884-12.556t12.556-3.884h43.63a132.526,132.526,0,0,1,15.447.768,38.832,38.832,0,0,1,11.563,3.116,33.48,33.48,0,0,1,11.021,7.5,32.83,32.83,0,0,1,7.272,11.337,37.791,37.791,0,0,1,2.484,13.685q0,14.814-8.356,23.667T341.285-59.8a49.045,49.045,0,0,1,13.64,11.2,113.6,113.6,0,0,1,11.608,15.763,116.785,116.785,0,0,1,7.949,15.085q2.845,6.73,2.845,9.259A9.461,9.461,0,0,1,375.657-3.3,11.718,11.718,0,0,1,371.095.768a14.386,14.386,0,0,1-6.685,1.49A13.026,13.026,0,0,1,356.822.135a20.411,20.411,0,0,1-5.284-5.375q-2.213-3.252-6.007-9.575L334.781-32.7a98.408,98.408,0,0,0-10.343-15,25.528,25.528,0,0,0-9.259-7.046A31.83,31.83,0,0,0,303.346-56.638ZM318.7-112.283H293.951v36.4H317.98a67.316,67.316,0,0,0,16.26-1.671q6.594-1.671,10.072-5.691t3.478-11.066a17.1,17.1,0,0,0-2.8-9.711,16.924,16.924,0,0,0-7.769-6.278Q332.523-112.283,318.7-112.283Z" transform="translate(17237 -1662.573)" fill="#fff"/>
    <path id="Path_203" data-name="Path 203" d="M446.211-51.58h-24.57v37.488q0,8.04-3.794,12.195a12.41,12.41,0,0,1-9.575,4.155,12.5,12.5,0,0,1-9.756-4.11q-3.7-4.11-3.7-12.059V-115.986q0-8.853,4.065-12.646t12.917-3.794h34.417q15.266,0,23.486,2.349a34.971,34.971,0,0,1,14.047,7.5,33.806,33.806,0,0,1,8.988,12.827A45.153,45.153,0,0,1,495.8-92.681q0,20.234-12.466,30.668T446.211-51.58Zm-6.5-60.7H421.641v40.469h18.066A53.966,53.966,0,0,0,455.561-73.8a18.477,18.477,0,0,0,9.711-6.5q3.342-4.517,3.342-11.833,0-8.762-5.149-14.272Q457.684-112.283,439.707-112.283Z" transform="translate(17227 -1662.573)" fill="#fff"/>
    <path id="Path_204" data-name="Path 204" d="M538.943-118.425v96.384h54.38q6.5,0,9.982,3.162a10.287,10.287,0,0,1,3.478,7.949,10.037,10.037,0,0,1-3.433,7.9Q599.917,0,593.322,0H528.554q-8.762,0-12.6-3.884T512.114-16.44V-118.425q0-8.13,3.658-12.195a12.324,12.324,0,0,1,9.62-4.065,12.781,12.781,0,0,1,9.8,4.02Q538.943-126.646,538.943-118.425Z" transform="translate(17217 -1660.315)" fill="#fff"/>
  </g>
</svg>
